<svg height="512pt" viewBox="0 -24 512.00101 512" width="512pt" xmlns="http://www.w3.org/2000/svg"><path d="m464.855469 71.664062h15.085937v16.027344h-15.085937zm0 0"/><path d="m31.589844 120.222656h72.128906v15.085938h-72.128906zm0 0"/><path d="m215.457031 223.941406h-15.089843c0-30.675781 24.957031-55.632812 55.632812-55.632812v15.085937c-22.355469 0-40.542969 18.191407-40.542969 40.546875zm0 0"/><path d="m256 279.574219v-15.089844c22.355469 0 40.546875-18.1875 40.546875-40.542969h15.085937c0 30.675782-24.957031 55.632813-55.632812 55.632813zm0 0"/><path d="m512 167.839844v-139.375l-20.449219-20.449219h-58.753906v78.542969c-16.730469-21.496094-37.367187-39.96875-60.671875-54.128906l-7.835938 12.890624c27.683594 16.820313 51.332032 40.15625 68.507813 67.480469v222.347657c-18.28125 29.015624-43.621094 53.308593-73.429687 70.316406-31.335938 17.878906-67.078126 27.328125-103.367188 27.328125-62.449219 0-120.898438-27.503907-160.765625-75.527344v-157.839844h40.074219v-145.972656c35.40625-25.097656 77.128906-38.367187 120.691406-38.367187 29.628906 0 58.253906 6.078124 85.085938 18.066406l6.152343-13.777344c-28.777343-12.855469-59.472656-19.375-91.238281-19.375-43.179688 0-84.667969 12.164062-120.691406 35.265625v-11.21875h-39.132813v64.117187h-8.957031v-64.117187h-39.128906v64.117187h-8.957032v-64.117187h-39.132812v175.378906h40.074219v32.53125h15.085937v-47.617187h-40.074218v-145.207032h8.957031v64.117188h39.132812v-64.117188h8.957031v64.117188h39.132813v-64.117188h8.957031v145.207032h-40.074218v264.484375h-24.988282v-200.839844h-15.085937v215.929687h55.160156v-84.054687c42.082031 43.449219 99.636719 68.023437 160.765625 68.023437 38.90625 0 77.234375-10.136718 110.84375-29.3125 25.511719-14.554687 47.957031-34.09375 65.953125-57.203124v102.546874h47.144531v-55.632812h-15.085937v40.542969h-16.972657v-137.191407h16.972657v72.605469h15.085937v-72.605469h16.03125v-7.542968c0-20.457032 13.703125-34.621094 13.820313-34.742188l2.207031-2.207031v-75.257813h-15.085938v64.589844h-49.03125v-233.371094h37.421876l11.609374 11.609376v133.125h15.085938zm-22.25 103.71875c-3.609375 6.375-7.164062 14.871094-8.40625 24.988281h-33.460938v-24.988281zm0 0"/><path d="m464.855469 39.601562h15.085937v16.03125h-15.085937zm0 0"/><path d="m464.855469 103.722656h15.085937v16.027344h-15.085937zm0 0"/><path d="m31.589844 152.28125h16.027344v15.085938h-16.027344zm0 0"/><path d="m63.648438 152.28125h16.027343v15.085938h-16.027343zm0 0"/><path d="m256 320.589844c-10.164062 0-20.171875-1.566406-29.742188-4.660156l-4.636718 14.355468c11.070312 3.578125 22.636718 5.390625 34.378906 5.390625 61.613281 0 111.734375-50.125 111.734375-111.734375 0-61.613281-50.121094-111.738281-111.734375-111.738281-61.609375 0-111.734375 50.125-111.734375 111.738281 0 41.8125 23.050781 79.804688 60.160156 99.144532l6.972657-13.382813c-32.101563-16.730469-52.046876-49.59375-52.046876-85.761719 0-53.292968 43.355469-96.652344 96.648438-96.652344s96.648438 43.359376 96.648438 96.652344c0 53.292969-43.355469 96.648438-96.648438 96.648438zm0 0"/></svg>