<svg height="512pt" viewBox="0 -77 512 512" width="512pt" xmlns="http://www.w3.org/2000/svg"><path d="m489.5 90.308594c-12.40625 0-22.5 10.09375-22.5 22.5v101.5h-53v-30.308594h15c12.40625 0 22.5-10.09375 22.5-22.5s-10.09375-22.5-22.5-22.5h-136.289062l2.761718-30.832031c.390625-4.386719-3.066406-8.167969-7.472656-8.167969h-24.5v-11.632812c20.980469-3.578126 37-21.886719 37-43.867188 0-24.539062-19.960938-44.5-44.5-44.5-24.535156 0-44.5 19.960938-44.5 44.5 0 21.980469 16.023438 40.292969 37 43.867188v11.632812h-24.5c-4.40625 0-7.863281 3.78125-7.46875 8.167969l2.757812 30.832031h-58.953124c-4.144532 0-7.5 3.359375-7.5 7.5s3.355468 7.5 7.5 7.5h268.664062c4.136719 0 7.5 3.363281 7.5 7.5s-3.363281 7.5-7.5 7.5h-346c-4.136719 0-7.5-3.363281-7.5-7.5s3.363281-7.5 7.5-7.5h44.667969c4.140625 0 7.5-3.359375 7.5-7.5s-3.359375-7.5-7.5-7.5h-44.667969c-12.40625 0-22.5 10.09375-22.5 22.5s10.09375 22.5 22.5 22.5h15v30.308594h-53v-101.5c0-12.40625-10.09375-22.5-22.5-22.5s-22.5 10.09375-22.5 22.5v124c0 9.988281 6.539062 18.476562 15.5625 21.40625v39.953125c0 4.140625 3.359375 7.5 7.5 7.5s7.5-3.359375 7.5-7.5v-38.859375h15v83.691406h-15v-12.167969c0-4.140625-3.359375-7.5-7.5-7.5s-7.5 3.359375-7.5 7.5v19.667969c0 4.140625 3.359375 7.5 7.5 7.5h30c4.140625 0 7.5-3.359375 7.5-7.5v-91.191406h37.4375v91.191406c0 4.140625 3.359375 7.5 7.5 7.5h30c4.140625 0 7.5-3.359375 7.5-7.5v-136.5h226v13c0 4.140625 3.359375 7.5 7.5 7.5s7.5-3.359375 7.5-7.5v-43h15v159h-15v-84.082031c0-4.144531-3.359375-7.5-7.5-7.5s-7.5 3.355469-7.5 7.5v91.582031c0 4.140625 3.359375 7.5 7.5 7.5h30c4.140625 0 7.5-3.359375 7.5-7.5v-91.191406h37.4375v91.191406c0 4.140625 3.359375 7.5 7.5 7.5h30c4.140625 0 7.5-3.359375 7.5-7.5v-92.285156c9.023438-2.929688 15.5625-11.417969 15.5625-21.40625v-124c0-12.40625-10.09375-22.5-22.5-22.5zm-263-45.808594c0-16.265625 13.234375-29.5 29.5-29.5s29.5 13.234375 29.5 29.5-13.234375 29.5-29.5 29.5-29.5-13.234375-29.5-29.5zm7.851562 94.5-2.148437-24h47.597656l-2.148437 24zm-211.289062 105.308594c-.070312 0-.136719 0-.207031 0h-.355469c-4.136719 0-7.5-3.363282-7.5-7.5v-124c0-4.132813 3.363281-7.5 7.5-7.5s7.5 3.367187 7.5 7.5v109c0 4.144531 3.359375 7.5 7.5 7.5h60.5v15c-10.726562 0-53.894531 0-74.9375 0zm104.9375 98.691406h-15v-159h15zm241-144h-226v-15h226zm97.4375 144v-83.691406h15v83.691406zm30.5625-106.191406c0 4.136718-3.363281 7.5-7.5 7.5h-.355469c-.070312 0-.136719 0-.207031 0-.113281 0-73.867188 0-74.9375 0v-15h60.5c4.140625 0 7.5-3.355469 7.5-7.5v-109c0-4.132813 3.363281-7.5 7.5-7.5s7.5 3.367187 7.5 7.5zm0 0"/></svg>