<?xml version="1.0" encoding="UTF-8" standalone="no"?><!DOCTYPE svg PUBLIC "-//W3C//DTD SVG 1.1//EN" "http://www.w3.org/Graphics/SVG/1.1/DTD/svg11.dtd"><svg width="100%" height="100%" viewBox="0 0 5656 6821" version="1.1" xmlns="http://www.w3.org/2000/svg" xmlns:xlink="http://www.w3.org/1999/xlink" xml:space="preserve" xmlns:serif="http://www.serif.com/" style="fill-rule:evenodd;clip-rule:evenodd;stroke-linecap:square;stroke-linejoin:round;stroke-miterlimit:1.5;"><rect id="Artboard1" x="0" y="0" width="5655.58" height="6820.97" style="fill:none;"/><path id="Mountain" d="M3633.8,4596.57l-252.842,-443.871l-226.984,229.726l-311.312,-565.199l-319.428,565.199l-226.984,-229.726l-244.725,443.871" style="fill:#3a3831;stroke:#3a3831;stroke-width:62.5px;"/><g id="Name"><g transform="matrix(1,0,0,1,-6006.95,-736.12)"><g transform="matrix(0.883356,-0.468703,0.468703,0.883356,-1368.43,3681.18)"><text x="6711.69px" y="4589.93px" style="font-family:'PlayfairDisplay-Medium', 'Playfair Display';font-weight:500;font-size:437.5px;fill:#3a3831;stroke:#3a3831;stroke-width:1px;stroke-linecap:butt;stroke-miterlimit:2;">R</text></g><g transform="matrix(0.910958,-0.412499,0.412499,0.910958,-1217,3271.13)"><text x="6968.49px" y="4454.52px" style="font-family:'PlayfairDisplay-Medium', 'Playfair Display';font-weight:500;font-size:437.5px;fill:#3a3831;stroke:#3a3831;stroke-width:1px;stroke-linecap:butt;stroke-miterlimit:2;">e</text></g><g transform="matrix(0.931273,-0.364321,0.364321,0.931273,-1097.06,2911.93)"><text x="7169.57px" y="4363.74px" style="font-family:'PlayfairDisplay-Medium', 'Playfair Display';font-weight:500;font-size:437.5px;fill:#3a3831;stroke:#3a3831;stroke-width:1px;stroke-linecap:butt;stroke-miterlimit:2;">s</text></g><g transform="matrix(0.946051,-0.324019,0.324019,0.946051,-993.947,2614.39)"><text x="7354.01px" y="4292.01px" style="font-family:'PlayfairDisplay-Medium', 'Playfair Display';font-weight:500;font-size:437.5px;fill:#3a3831;stroke:#3a3831;stroke-width:1px;stroke-linecap:butt;stroke-miterlimit:2;">t</text></g><g transform="matrix(0.959957,-0.280149,0.280149,0.959957,-887.8,2270.9)"><text x="7499.86px" y="4241.03px" style="font-family:'PlayfairDisplay-Medium', 'Playfair Display';font-weight:500;font-size:437.5px;fill:#3a3831;stroke:#3a3831;stroke-width:1px;stroke-linecap:butt;stroke-miterlimit:2;">a</text></g><g transform="matrix(0.973708,-0.227802,0.227802,0.973708,-749.083,1866.7)"><text x="7712.13px" y="4178.43px" style="font-family:'PlayfairDisplay-Medium', 'Playfair Display';font-weight:500;font-size:437.5px;fill:#3a3831;stroke:#3a3831;stroke-width:1px;stroke-linecap:butt;stroke-miterlimit:2;">u</text></g><g transform="matrix(0.984475,-0.175525,0.175525,0.984475,-599.621,1461.7)"><text x="7963.14px" y="4120.49px" style="font-family:'PlayfairDisplay-Medium', 'Playfair Display';font-weight:500;font-size:437.5px;fill:#3a3831;stroke:#3a3831;stroke-width:1px;stroke-linecap:butt;stroke-miterlimit:2;">r</text></g><g transform="matrix(0.991796,-0.127834,0.127834,0.991796,-455.304,1076.37)"><text x="8157.86px" y="4085.25px" style="font-family:'PlayfairDisplay-Medium', 'Playfair Display';font-weight:500;font-size:437.5px;fill:#3a3831;stroke:#3a3831;stroke-width:1px;stroke-linecap:butt;stroke-miterlimit:2;">a</text></g><g transform="matrix(0.996737,-0.0807151,0.0807151,0.996737,-300.119,689.378)"><text x="8376.9px" y="4056.88px" style="font-family:'PlayfairDisplay-Medium', 'Playfair Display';font-weight:500;font-size:437.5px;fill:#3a3831;stroke:#3a3831;stroke-width:1px;stroke-linecap:butt;stroke-miterlimit:2;">c</text></g><g transform="matrix(0.998909,-0.0467065,0.0467065,0.998909,-179.314,406.066)"><text x="8599.59px" y="4040.1px" style="font-family:'PlayfairDisplay-Medium', 'Playfair Display';font-weight:500;font-size:437.5px;fill:#3a3831;stroke:#3a3831;stroke-width:1px;stroke-linecap:butt;stroke-miterlimit:2;">j</text></g><g transform="matrix(0.999994,-0.00352092,0.00352092,0.999994,-14.1481,30.7296)"><text x="8720.61px" y="4033.65px" style="font-family:'PlayfairDisplay-Medium', 'Playfair Display';font-weight:500;font-size:437.5px;fill:#3a3831;stroke:#3a3831;stroke-width:1px;stroke-linecap:butt;stroke-miterlimit:2;">a</text></g><g transform="matrix(0.99646,0.084064,-0.084064,0.99646,371.04,-746.043)"><text x="9044.52px" y="4032.95px" style="font-family:'PlayfairDisplay-Medium', 'Playfair Display';font-weight:500;font-size:437.5px;fill:#3a3831;stroke:#3a3831;stroke-width:1px;stroke-linecap:butt;stroke-miterlimit:2;">&amp;</text></g><g transform="matrix(0.984021,0.178052,-0.178052,0.984021,878.736,-1630.55)"><text x="9523.87px" y="4080.56px" style="font-family:'PlayfairDisplay-Medium', 'Playfair Display';font-weight:500;font-size:437.5px;fill:#3a3831;stroke:#3a3831;stroke-width:1px;stroke-linecap:butt;stroke-miterlimit:2;">P</text></g><g transform="matrix(0.974976,0.222308,-0.222308,0.974976,1162.74,-2071.7)"><text x="9783.83px" y="4129.02px" style="font-family:'PlayfairDisplay-Medium', 'Playfair Display';font-weight:500;font-size:437.5px;fill:#3a3831;stroke:#3a3831;stroke-width:1px;stroke-linecap:butt;stroke-miterlimit:2;">i</text></g><g transform="matrix(0.965513,0.260355,-0.260355,0.965513,1424.2,-2437.14)"><text x="9911.54px" y="4157.32px" style="font-family:'PlayfairDisplay-Medium', 'Playfair Display';font-weight:500;font-size:437.5px;fill:#3a3831;stroke:#3a3831;stroke-width:1px;stroke-linecap:butt;stroke-miterlimit:2;">z</text></g><g transform="matrix(0.951507,0.307626,-0.307626,0.951507,1785.94,-2906.63)"><text x="10112.4px" y="4211.47px" style="font-family:'PlayfairDisplay-Medium', 'Playfair Display';font-weight:500;font-size:437.5px;fill:#3a3831;stroke:#3a3831;stroke-width:1px;stroke-linecap:butt;stroke-miterlimit:2;">z</text></g><g transform="matrix(0.934237,0.356654,-0.356654,0.934237,2202.85,-3396.13)"><text x="10310.5px" y="4275.28px" style="font-family:'PlayfairDisplay-Medium', 'Playfair Display';font-weight:500;font-size:437.5px;fill:#3a3831;stroke:#3a3831;stroke-width:1px;stroke-linecap:butt;stroke-miterlimit:2;">e</text></g><g transform="matrix(0.914357,0.404909,-0.404909,0.914357,2663.49,-3885.05)"><text x="10515.8px" y="4353.79px" style="font-family:'PlayfairDisplay-Medium', 'Playfair Display';font-weight:500;font-size:437.5px;fill:#3a3831;stroke:#3a3831;stroke-width:1px;stroke-linecap:butt;stroke-miterlimit:2;">r</text></g><g transform="matrix(0.896878,0.442277,-0.442277,0.896878,3064.34,-4273.58)"><text x="10696.6px" y="4434.52px" style="font-family:'PlayfairDisplay-Medium', 'Playfair Display';font-weight:500;font-size:437.5px;fill:#3a3831;stroke:#3a3831;stroke-width:1px;stroke-linecap:butt;stroke-miterlimit:2;">i</text></g><g transform="matrix(0.875021,0.484086,-0.484086,0.875021,3525.88,-4674.01)"><text x="10814.9px" y="4491.43px" style="font-family:'PlayfairDisplay-Medium', 'Playfair Display';font-weight:500;font-size:437.5px;fill:#3a3831;stroke:#3a3831;stroke-width:1px;stroke-linecap:butt;stroke-miterlimit:2;">a</text></g></g><g transform="matrix(0.999885,-0.0151685,0.0151685,0.999885,-6110.75,-1268.36)"><g transform="matrix(0.931229,-0.364433,0.364433,0.931229,-1173.28,2777.28)"><text x="6772.13px" y="4497.41px" style="font-family:'PlayfairDisplay-Medium', 'Playfair Display';font-weight:500;font-size:1333.33px;fill:#3a3831;stroke:#3a3831;stroke-width:1px;stroke-linecap:butt;stroke-miterlimit:2;">B</text></g><g transform="matrix(0.984863,-0.173335,0.173335,0.984863,-609.409,1380.35)"><text x="7598.51px" y="4179.35px" style="font-family:'PlayfairDisplay-Medium', 'Playfair Display';font-weight:500;font-size:1333.33px;fill:#3a3831;stroke:#3a3831;stroke-width:1px;stroke-linecap:butt;stroke-miterlimit:2;">A</text></g><g transform="matrix(0.999795,0.0202392,-0.0202392,0.999795,83.1905,-170.754)"><text x="8477.51px" y="4024.56px" style="font-family:'PlayfairDisplay-Medium', 'Playfair Display';font-weight:500;font-size:1333.33px;fill:#3a3831;stroke:#3a3831;stroke-width:1px;stroke-linecap:butt;stroke-miterlimit:2;">R</text></g><g transform="matrix(0.982374,0.186926,-0.186926,0.982374,920.829,-1679.36)"><text x="9365.29px" y="4043.07px" style="font-family:'PlayfairDisplay-Medium', 'Playfair Display';font-weight:500;font-size:1333.33px;fill:#3a3831;stroke:#3a3831;stroke-width:1px;stroke-linecap:butt;stroke-miterlimit:2;">Y</text></g><g transform="matrix(0.93031,0.366773,-0.366773,0.93031,2244.7,-3432.78)"><text x="10155.6px" y="4190.5px" style="font-family:'PlayfairDisplay-Medium', 'Playfair Display';font-weight:500;font-size:1333.33px;fill:#3a3831;stroke:#3a3831;stroke-width:1px;stroke-linecap:butt;stroke-miterlimit:2;">T</text></g></g></g><g id="Shape"><path d="M482.244,720.213c1610.31,-644.438 3183.06,-650.443 4717.19,0" style="fill:none;stroke:#3a3831;stroke-width:62.5px;stroke-linecap:round;"/><path d="M482.244,720.213l285.76,716.077" style="fill:none;stroke:#3a3831;stroke-width:62.5px;stroke-linecap:butt;"/><path d="M1705.47,3785.2l305.016,764.329" style="fill:none;stroke:#3a3831;stroke-width:62.5px;stroke-linecap:butt;"/><path d="M2010.49,4549.53l835.23,2092.97l831.855,-2092.97" style="fill:#3a3831;stroke:#3a3831;stroke-width:62.5px;stroke-linecap:round;"/><path d="M3677.58,4549.53l303.783,-764.329" style="fill:none;stroke:#3a3831;stroke-width:62.5px;stroke-linecap:butt;"/><path d="M4914.83,1436.29l284.606,-716.077" style="fill:none;stroke:#3a3831;stroke-width:62.5px;stroke-linecap:butt;"/></g><g id="Cutlers"><path d="M3141.33,535.122c-5.638,-2.821 -14.582,-0.079 -27.238,8.406c-16.306,10.806 -35.381,28.666 -68.166,63.678c-16.699,17.77 -98.861,114.773 -139.203,164.373c-34.505,42.34 -35.973,44.495 -48.654,71.28c-8.189,17.27 -9.898,19.917 -21.785,34.083c-26.425,31.492 -64.136,71.663 -97.117,103.559c-13.735,13.223 -25.803,24.458 -51.807,48.141c-42.014,38.296 -48.444,44.538 -62.939,61.812c-12.621,14.94 -17.145,21.651 -23.618,34.542c-6.623,13.373 -8.485,20.668 -7.343,29.355c2.752,20.979 26.281,36.38 46.315,30.266c7.396,-2.217 18.14,-10.048 30.921,-22.336c12.253,-11.862 26.397,-30.646 45.86,-60.946c3.84,-5.896 11.213,-17.424 16.506,-25.661c24.835,-38.731 48.325,-72.511 74.761,-107.468c16.361,-21.527 45.093,-57.596 55.648,-69.667l8.965,-10.279l6.289,-3.841c3.48,-2.116 15.125,-7.976 25.9,-13.002c26.828,-12.484 38.065,-18.772 51.997,-28.878c18.615,-13.557 30.781,-26.534 61.095,-65.097c73.896,-93.952 122.713,-174.561 130.423,-215.418c2.478,-13.204 -0.158,-23.665 -6.81,-26.902Z" style="fill:#3a3831;fill-rule:nonzero;"/><path d="M2542.69,582.967c2.998,10.453 29.203,49.96 64.586,97.412c21.624,28.961 31.085,40.935 52.673,66.662c19.15,22.921 23.293,27.56 28.314,32.049c7.088,6.352 13.281,10.442 21.039,13.805c7.586,3.257 11.627,4.384 28.388,7.806c15.151,3.1 21.722,4.949 27.83,7.94c10.39,5.004 17.487,11.766 28.04,26.338c3.364,4.707 18.959,27.181 34.62,49.933c57.803,83.944 74.32,107.317 103.092,146.093c25.919,34.978 31.936,42.647 59.745,75.788c30.116,35.891 37.018,43.319 54.691,59.196c15.78,14.119 24.142,18.899 34.616,19.816c3.251,0.284 7.535,0.204 9.486,-0.262c20.952,-4.445 31.106,-27.942 21.675,-50.149c-2.035,-4.819 -10.108,-18.627 -16.69,-28.666c-6.55,-9.899 -27.045,-35.122 -38.979,-47.949c-13.936,-14.913 -23.093,-24.13 -58.843,-59.058c-73.14,-71.41 -103.57,-103.189 -154.301,-160.855c-25.489,-28.981 -37.891,-44.26 -40.256,-49.471c-3.696,-8.194 -4.745,-14.928 -4.734,-31.168c-0.059,-17.521 -2.355,-31.324 -7.554,-44.699c-4.926,-12.851 -14.474,-25.924 -44.117,-60.455c-20.977,-24.4 -26.405,-30.471 -49.235,-54.487c-39.787,-41.832 -80.902,-80.96 -82.617,-78.517c-1.25,1.801 8.001,14.621 42.297,58.384c41.457,52.897 56.132,72.879 63.35,86.067c3.806,6.93 4.447,9.488 2.809,10.527c-4.185,2.591 -21.492,-14.345 -63.91,-62.504c-53.919,-61.266 -64.148,-72.261 -67.899,-72.544c-3.974,-0.347 5.344,12.751 41.797,58.887c42.594,53.952 56.865,73.352 63.813,87.017c5.369,10.388 1.974,13.321 -7.241,6.327c-10.795,-8.178 -25.505,-24.114 -68.446,-74.093c-40.923,-47.573 -51.31,-58.854 -54.074,-58.459c-3.272,0.487 6.987,15.306 42.802,61.977c31.858,41.457 42.114,55.275 51.268,68.678c10.977,15.973 15.034,24.198 12.972,25.929c-2.455,2.06 -9.588,-3.25 -24.303,-18.095c-10.367,-10.461 -26.933,-29.107 -59.93,-67.434c-36.597,-42.417 -45.698,-52.267 -47.171,-51.031c-0.246,0.206 -0.101,1.675 0.397,3.265Z" style="fill:#3a3831;fill-rule:nonzero;"/></g></svg>