<svg height="512pt" viewBox="0 -2 512.00067 512" width="512pt" xmlns="http://www.w3.org/2000/svg"><path d="m100.671875 86.691406c-5.207031 0-10.03125 3.296875-11.421875 8.511719 0 0-28.882812 108.300781-28.894531 108.34375-10.023438 37.585937 13.472656 77.265625 51.101562 86.6875 37.292969 9.335937 75.769531-14.363281 85.601563-51.230469 0 0 27.929687-104.722656 27.957031-104.820312 1.984375-7.453125-4.125-14.894532-11.808594-14.378906-25.941406 1.726562-47.769531-5.550782-69.910156-18.335938-13.15625-7.601562-25.582031-14.777344-42.625-14.777344zm103.480469 48.425782c1.675781 0 3.382812-.03125 5.109375-.089844 0 0-26.683594 100.054687-26.699219 100.109375-7.714844 28.929687-38.175781 47.875-67.460938 40.542969-29.671874-7.425782-48.136718-38.691407-40.25-68.269532l28.179688-105.652344c11.867188.632813 21.171875 6.007813 32.761719 12.703126 21.511719 12.421874 43.207031 20.65625 68.359375 20.65625zm0 0"/><path d="m102.671875 166.617188c-4-1.066407-8.113281 1.3125-9.179687 5.3125l-1.832032 6.863281c-1.066406 4.003906 1.3125 8.113281 5.316406 9.179687.648438.175782 1.296876.257813 1.9375.257813 3.316407 0 6.351563-2.214844 7.246094-5.570313l1.828125-6.863281c1.066407-4-1.3125-8.113281-5.316406-9.179687zm0 0"/><path d="m172.804688 208.199219c.648437.171875 1.296874.253906 1.9375.253906 3.316406 0 6.347656-2.214844 7.246093-5.570313l1.828125-6.859374c1.066406-4.003907-1.3125-8.113282-5.3125-9.183594-4-1.066406-8.113281 1.3125-9.183594 5.316406l-1.828124 6.859375c-1.066407 4.003906 1.308593 8.113281 5.3125 9.183594zm0 0"/><path d="m134.324219 184.550781c-1.832031-3.714843-6.328125-5.246093-10.042969-3.414062-3.71875 1.832031-5.246094 6.328125-3.417969 10.042969 2.558594 5.1875 7.3125 9.039062 13.050781 10.570312 1.785157.476562 3.59375.707031 5.390626.707031 3.980468 0 7.882812-1.152343 11.1875-3.375 3.441406-2.3125 4.351562-6.972656 2.042968-10.410156-2.3125-3.4375-6.972656-4.351563-10.410156-2.039063-1.207031.808594-2.789062 1.035157-4.34375.621094-1.554688-.414062-2.816406-1.402344-3.457031-2.703125zm0 0"/><path d="m298.675781 169.757812c-7.707031-.511718-13.792969 6.921876-11.804687 14.378907 0 0 27.9375 104.757812 27.953125 104.820312 9.785156 36.683594 48.535156 60.511719 85.605469 51.230469 37.679687-9.4375 61.121093-49.113281 51.097656-86.6875l-28.894532-108.347656c-1.324218-4.96875-5.832031-8.464844-10.960937-8.503906l-.457031-.003907c-17.042969 0-29.46875 7.179688-42.625 14.777344-15.871094 9.167969-32.285156 18.644531-60.855469 18.644531-2.933594 0-5.980469-.101562-9.058594-.308594zm77.414063-5.34375c11.59375-6.695312 20.898437-12.070312 32.765625-12.703124 0 0 28.164062 105.605468 28.175781 105.652343 7.898438 29.609375-10.609375 60.851563-40.246094 68.269531-29.457031 7.375-59.714844-11.484374-67.464844-40.542968l-26.699218-100.109375c15.441406.535156 30.910156-1.4375 45.46875-6.734375 10.953125-3.988282 20.007812-9.21875 28-13.832032zm0 0"/><path d="m405.726562 232.613281c1.039063 3.898438 5.28125 6.351563 9.179688 5.3125 4.003906-1.066406 6.382812-5.175781 5.316406-9.179687l-1.832031-6.863282c-1.066406-4-5.175781-6.382812-9.179687-5.3125-4.003907 1.066407-6.382813 5.175782-5.316407 9.179688 0 0 1.828125 6.855469 1.832031 6.863281zm0 0"/><path d="m329.894531 252.835938c1.050781 3.9375 5.257813 6.363281 9.183594 5.316406 4.003906-1.070313 6.382813-5.179688 5.3125-9.183594l-1.828125-6.863281c-1.070312-4-5.179688-6.378907-9.183594-5.3125-4 1.066406-6.382812 5.179687-5.3125 9.183593 0 0 1.828125 6.847657 1.828125 6.859376zm0 0"/><path d="m361.390625 249.035156c4.832031 3.25 10.972656 4.160156 16.578125 2.667969 5.738281-1.53125 10.496094-5.382813 13.050781-10.570313 1.832031-3.714843.300781-8.214843-3.414062-10.042968-3.71875-1.832032-8.214844-.304688-10.042969 3.414062-.644531 1.300782-1.902344 2.289063-3.457031 2.703125-1.558594.414063-3.140625.1875-4.34375-.621093-3.441407-2.3125-8.101563-1.398438-10.414063 2.039062-2.308594 3.4375-1.398437 8.097656 2.042969 10.410156zm0 0"/><path d="m511.390625 464.863281c1.59375-5.851562.015625-11.914062-4.222656-16.210937-8.289063-8.40625-20.453125-18.054688-41.136719-18.054688-4.929688 0-10.089844.542969-15.609375 1.628906l-19.21875-72.0625c16.1875-8.726562 29.695313-21.769531 39.140625-38.082031 13.460938-23.25 17.0625-50.351562 10.140625-76.308593l-46.117187-172.917969c-4.382813-16.433594-21.320313-26.242188-37.757813-21.855469l-27.023437 7.207031c-4.003907 1.066407-6.382813 5.175781-5.316407 9.179688 1.066407 4.003906 5.179688 6.382812 9.179688 5.316406l27.023437-7.210937c8.445313-2.253907 17.144532 2.789062 19.398438 11.230468l46.113281 172.914063c10.90625 40.890625-9.847656 82.894531-47.132813 99.898437-47.507812 21.667969-104.824218-5.488281-118.238281-55.792968 0 0-44.082031-165.289063-44.085937-165.296876-1.183594-4.441406-3.070313-9.285156-2.40625-13.941406.886718-6.191406 5.5625-11.460937 11.601562-13.074218l79.082032-21.089844c4-1.066406 6.382812-5.175782 5.3125-9.179688-1.066407-4.003906-5.179688-6.382812-9.179688-5.316406l-71.789062 19.148438 2.734374-10.25c4.382813-16.4375-5.421874-33.375-21.859374-37.757813l-77.019532-20.542969c-4-1.066406-8.113281 1.3125-9.179687 5.316406-1.066407 4.003907 1.3125 8.113282 5.316406 9.179688l77.015625 20.542969c8.441406 2.25 13.480469 10.953125 11.230469 19.394531 0 0-5.542969 20.777344-5.542969 20.777344-4.734375 3.371094-8.460938 8.164062-10.628906 13.546875-3.457032 8.570312-1.992188 16.582031.300781 25.179687 0 0-30.238281 113.371094-30.246094 113.410156-13.378906 50.15625-71.0625 77.285157-118.230469 55.796876-37.289062-17.003907-58.050781-59.007813-47.144531-99.898438l46.121094-172.917969c2.25-8.441406 10.949219-13.480469 19.390625-11.226562l28.890625 7.703125c4 1.066406 8.113281-1.3125 9.179687-5.316406 1.070313-4-1.308593-8.113282-5.3125-9.179688l-28.890624-7.703125c-16.429688-4.382813-33.371094 5.417969-37.757813 21.855469l-46.113281 172.917968c-12.210938 45.773438 9.34375 92.734376 49.285156 114.367188l-19.226562 72.085938c-5.519532-1.085938-10.679688-1.628907-15.609376-1.628907-10.863281 0-25.359374 2.050781-41.136718 18.054688-8.980469 9.109375-4.441406 24.914062 7.792968 28.179687 0 0 116.402344 31.042969 116.484376 31.066406 12.238281 3.261719 24.027343-8.246093 20.792968-20.558593-4.210937-16.015625-12.699218-33.476563-42.90625-43.113281l19.195313-71.984376c.832031.019532 1.660156.039063 2.488281.039063 44.449219 0 85.222656-29.734375 97.207031-74.671875l23.511719-88.167969 36.835938 138.121094c6.925781 25.957031 23.542968 47.667969 46.792968 61.128906 15.980469 9.25 34.441406 14.023438 52.910156 13.53125l19.1875 71.953125c-30.207031 9.636719-38.695312 27.101563-42.90625 43.117188-2.765624 10.515625 5.546876 21.136718 16.386719 21.136718 1.476563 0 2.957031-.191406 4.402344-.578124l116.484375-31.066407c5.914062-1.578125 10.40625-6.050781 12.015625-11.96875zm-376.117187-23.660156c.355468 1.347656-1.058594 2.605469-2.414063 2.246094l-116.484375-31.066407c-1.34375-.355468-2-2.109374-.972656-3.148437 9.386718-9.523437 18.492187-13.585937 30.449218-13.585937 5.640626 0 12.054688.945312 19.058594 2.8125l32.792969 8.746093c25.554687 6.816407 33.5 18.519531 37.570313 33.996094zm-42.855469-50.933594-16.394531-4.371093 18.535156-69.507813c5.328125 1.914063 10.820312 3.375 16.394531 4.371094zm308.511719-19.554687c.128906-.023438.253906-.054688.382812-.078125 5.429688-.988281 10.765625-2.425781 15.960938-4.277344.015624-.007813.035156-.011719.050781-.015625l18.535156 69.507812-16.394531 4.375zm95.988281 90.207031c-.117188.417969-.449219 1.160156-1.40625 1.414063 0 0-116.222657 30.996093-116.484375 31.066406-1.347656.359375-2.785156-.847656-2.414063-2.25 4.066407-15.472656 12.011719-27.175782 37.566407-33.992188l32.796874-8.746094c7.003907-1.867187 13.414063-2.8125 19.058594-2.8125 11.957032 0 21.0625 4.0625 30.449219 13.582032.585937.59375.558594 1.273437.433594 1.738281zm0 0"/></svg>