<?xml version="1.0" encoding="UTF-8" standalone="no"?><!DOCTYPE svg PUBLIC "-//W3C//DTD SVG 1.1//EN" "http://www.w3.org/Graphics/SVG/1.1/DTD/svg11.dtd"><svg width="100%" height="100%" viewBox="0 0 5656 6821" version="1.1" xmlns="http://www.w3.org/2000/svg" xmlns:xlink="http://www.w3.org/1999/xlink" xml:space="preserve" xmlns:serif="http://www.serif.com/" style="fill-rule:evenodd;clip-rule:evenodd;stroke-linecap:square;stroke-linejoin:round;stroke-miterlimit:1.5;"><rect id="Artboard1" x="0" y="0" width="5655.58" height="6820.97" style="fill:none;"/><path id="Mountain" d="M3633.8,4596.57l-252.842,-443.871l-226.984,229.726l-311.312,-565.199l-319.428,565.199l-226.984,-229.726l-244.725,443.871" style="fill:#fff;stroke:#fff;stroke-width:62.5px;"/><g id="Name"><g><path d="M574.64,3572.19c6.062,-2.887 13.864,-6.696 23.405,-11.428c9.54,-4.732 18.948,-9.559 28.224,-14.481c12.367,-6.561 24.086,-12.944 35.156,-19.149c11.071,-6.204 18.926,-10.537 23.563,-12.997c32.721,-17.362 60.513,-24.101 83.374,-20.218c22.862,3.884 39.556,15.745 50.083,35.584c4.237,7.987 7.104,17.279 8.6,27.876c1.496,10.598 0.267,21.816 -3.688,33.654c-3.954,11.839 -11.46,23.828 -22.518,35.969c-11.058,12.141 -27.15,23.816 -48.277,35.026l-37.101,19.685l-4.101,-7.729l33.236,-17.635c17.263,-9.159 28.929,-19.064 35,-29.714c6.07,-10.65 8.152,-21.66 6.247,-33.031c-1.906,-11.37 -6.003,-22.982 -12.292,-34.833c-10.8,-20.354 -23.553,-33.811 -38.259,-40.371c-14.707,-6.559 -32.881,-4.097 -54.524,7.386c-11.078,5.878 -17.195,11.93 -18.349,18.156c-1.154,6.225 1.823,16.037 8.932,29.434l101.708,191.688c4.922,9.276 9.386,15.822 13.392,19.639c4.007,3.818 8.61,5.337 13.81,4.559c5.2,-0.778 12.188,-3.165 20.964,-7.161l4.101,7.729c-6.457,2.766 -14.421,6.579 -23.894,11.44c-9.472,4.861 -19.104,9.889 -28.894,15.084c-10.821,5.741 -20.9,11.171 -30.235,16.29c-9.336,5.119 -16.83,9.508 -22.483,13.167l-4.101,-7.729c8.487,-5.164 14.51,-9.68 18.07,-13.55c3.559,-3.87 4.818,-8.499 3.774,-13.889c-1.044,-5.389 -4.026,-12.722 -8.948,-21.997l-101.708,-191.688c-5.058,-9.533 -9.492,-16.178 -13.301,-19.935c-3.81,-3.757 -8.413,-5.277 -13.811,-4.559c-5.397,0.718 -12.415,3.203 -21.054,7.457l-4.101,-7.729Zm138.108,102.541c13.414,-6.457 24.285,-11.482 32.613,-15.075c8.329,-3.594 15.336,-6.569 21.019,-8.924c5.684,-2.356 11.05,-4.378 16.098,-6.065c20.69,-7.677 37.531,-10.008 50.521,-6.995c12.99,3.013 25.397,11.618 37.222,25.814l30.578,34.294c8.197,9.848 14.878,16.373 20.044,19.576c5.166,3.202 10.455,3.368 15.865,0.497c3.986,-2.445 6.75,-5.48 8.293,-9.106c1.544,-3.625 2.836,-8.19 3.877,-13.695l7.666,1.38c-1.688,11.131 -4.693,20.402 -9.015,27.813c-4.322,7.412 -11.894,13.988 -22.715,19.73c-11.079,5.878 -22.085,8.003 -33.019,6.376c-10.934,-1.628 -22.382,-9.669 -34.344,-24.123l-28.235,-34.546c-8.197,-9.848 -15.866,-18.079 -23.006,-24.691c-7.14,-6.612 -14.453,-10.904 -21.938,-12.876c-7.485,-1.971 -15.993,-0.428 -25.526,4.63l-41.739,22.146l-4.259,-6.16Z" style="fill:#fff;fill-rule:nonzero;"/><path d="M975.497,3457.54c23.381,-10.587 44.903,-11.848 64.564,-3.782c19.661,8.067 36.41,27.377 50.246,57.932l-137.498,62.262l-4.226,-7.211l96.049,-43.493c-5.629,-13.14 -12.136,-24.681 -19.52,-34.625c-7.385,-9.943 -15.105,-17.093 -23.161,-21.45c-8.056,-4.356 -16.202,-4.67 -24.439,-0.94c-11.425,5.173 -18.585,15.7 -21.48,31.579c-2.895,15.879 0.743,37.524 10.914,64.936l2.098,1.451c1.419,3.84 2.988,8.012 4.707,12.517c1.72,4.504 3.542,8.882 5.467,13.133c8.302,18.333 18.069,32.48 29.304,42.441c11.234,9.961 22.782,16.018 34.643,18.172c11.861,2.153 22.441,1.124 31.74,-3.087c10.628,-4.812 19.721,-12.131 27.278,-21.957c7.557,-9.826 11.675,-23.536 12.352,-41.133l9.414,-0.421c0.902,10.478 0.017,21.604 -2.655,33.38c-2.672,11.776 -7.956,22.733 -15.851,32.872c-7.896,10.139 -18.752,18.337 -32.568,24.593c-18.599,8.422 -36.701,11.576 -54.307,9.463c-17.606,-2.113 -33.678,-9.323 -48.216,-21.631c-14.538,-12.307 -26.68,-29.221 -36.425,-50.743c-10.708,-23.647 -15.999,-45.584 -15.874,-65.812c0.126,-20.228 5.148,-37.951 15.067,-53.168c9.918,-15.217 24.044,-26.976 42.377,-35.278Z" style="fill:#fff;fill-rule:nonzero;"/><path d="M1164.93,3377.73c10.865,-4.251 20.968,-6.246 30.309,-5.985c9.341,0.261 16.309,1.058 20.902,2.393c11.727,3.556 15.488,-3.24 11.286,-20.388l8.963,-3.506c2.432,7.818 5.611,17.144 9.537,27.98c3.926,10.835 9.342,25.08 16.249,42.736l-8.964,3.506c-5.561,-9.412 -12.171,-18.101 -19.828,-26.067c-7.658,-7.966 -16.443,-13.612 -26.357,-16.937c-9.914,-3.325 -20.846,-2.65 -32.797,2.026c-8.964,3.506 -15.451,8.941 -19.46,16.303c-4.01,7.363 -4.103,15.934 -0.277,25.712c3.188,8.149 8.395,14.255 15.622,18.318c7.227,4.063 15.72,7.16 25.481,9.293c9.76,2.132 20.29,4.433 31.592,6.902c18.87,4.206 35.486,9.45 49.845,15.734c14.36,6.284 24.78,17.71 31.262,34.279c4.888,12.494 5.705,24.389 2.451,35.685c-3.255,11.295 -9.438,21.309 -18.549,30.041c-9.112,8.732 -20.187,15.648 -33.224,20.749c-6.519,2.55 -12.87,4.33 -19.052,5.339c-6.182,1.009 -12.09,1.519 -17.723,1.531c-3.625,-0.461 -7.209,-1.017 -10.752,-1.666c-3.543,-0.65 -6.991,-1.259 -10.345,-1.826c-3.46,-0.838 -5.798,0.389 -7.015,3.684c-1.217,3.295 -1.146,8.278 0.211,14.951l-8.963,3.506c-2.857,-8.904 -6.594,-19.657 -11.21,-32.258c-4.617,-12.6 -10.963,-29.223 -19.038,-49.866l8.963,-3.506c7.746,14.195 15.751,26.253 24.017,36.173c8.266,9.921 17.382,16.612 27.348,20.072c9.967,3.461 21.469,2.642 34.507,-2.459c7.606,-2.975 14.039,-8.546 19.301,-16.711c5.262,-8.166 5.342,-18.768 0.242,-31.805c-4.676,-11.952 -12.67,-20.178 -23.983,-24.678c-11.313,-4.5 -25.188,-8.546 -41.626,-12.137c-11.786,-2.906 -23.069,-5.931 -33.851,-9.073c-10.781,-3.142 -20.32,-7.71 -28.615,-13.704c-8.296,-5.994 -14.622,-14.559 -18.979,-25.695c-4.781,-12.223 -5.793,-23.416 -3.035,-33.577c2.759,-10.162 8.257,-19.125 16.494,-26.888c8.238,-7.764 17.925,-13.825 29.061,-18.181Z" style="fill:#fff;fill-rule:nonzero;"/><path d="M1334.13,3245.39l23.532,68.707l57.118,-19.562l2.835,8.277l-57.118,19.563l55.711,162.662c3.875,11.313 8.685,18.606 14.43,21.879c5.746,3.274 12.482,3.587 20.208,0.941c7.174,-2.457 12.597,-7.552 16.269,-15.284c3.672,-7.731 5.215,-19.205 4.629,-34.419l8.856,0.204c1.698,15.759 0.063,30.115 -4.903,43.069c-4.967,12.954 -15.59,22.218 -31.87,27.794c-9.382,3.213 -17.647,4.734 -24.797,4.562c-7.15,-0.171 -13.826,-1.661 -20.029,-4.47c-8.244,-4.267 -14.982,-10.438 -20.214,-18.511c-5.231,-8.074 -10.351,-19.423 -15.36,-34.048l-47.631,-139.069l-38.078,13.042l-2.836,-8.278l38.079,-13.042l-20.697,-60.429c8.46,-3.206 16.202,-6.705 23.227,-10.498c7.025,-3.794 13.238,-8.157 18.639,-13.09Z" style="fill:#fff;fill-rule:nonzero;"/><path d="M1561.39,3488.12c-18.479,5.393 -33.217,4.604 -44.214,-2.365c-10.997,-6.969 -18.62,-17.733 -22.869,-32.292c-3.513,-12.04 -3.573,-22.656 -0.18,-31.85c3.394,-9.194 8.786,-17.528 16.175,-25.002c7.39,-7.473 15.544,-14.41 24.462,-20.811c8.918,-6.4 17.317,-12.498 25.197,-18.291c7.88,-5.794 14.077,-11.628 18.591,-17.503c4.514,-5.875 5.832,-12.032 3.952,-18.472l-8.334,-28.559c-2.942,-10.079 -6.901,-17.659 -11.877,-22.739c-4.977,-5.08 -10.563,-8.084 -16.758,-9.01c-6.195,-0.927 -13.072,-0.287 -20.632,1.919c-6.44,1.88 -13.034,4.792 -19.783,8.736c-6.748,3.944 -11.446,9.189 -14.093,15.735c6.65,-0.118 12.72,1.681 18.209,5.396c5.49,3.715 9.297,9.212 11.422,16.492c2.287,7.839 1.495,14.755 -2.377,20.746c-3.873,5.992 -9.729,10.131 -17.568,12.419c-8.68,2.533 -15.916,1.683 -21.709,-2.551c-5.794,-4.235 -9.752,-9.991 -11.877,-17.271c-2.206,-7.56 -2.114,-14.271 0.277,-20.134c2.391,-5.863 6.053,-11.793 10.987,-17.79c5.413,-6.441 12.919,-12.734 22.52,-18.878c9.601,-6.144 20.841,-11.095 33.72,-14.854c12.039,-3.513 22.857,-5.227 32.453,-5.141c9.596,0.086 18.192,2.211 25.787,6.375c8.879,4.397 15.848,11.098 20.907,20.104c5.059,9.006 9.59,20.369 13.594,34.088l33.828,115.915c1.961,6.719 4.231,11.374 6.81,13.964c2.578,2.589 6.108,3.23 10.588,1.923c3.359,-0.98 6.194,-2.719 8.504,-5.216c2.309,-2.497 4.537,-5.274 6.683,-8.331l6.284,5.914c-4.491,6.475 -9.337,11.992 -14.54,16.548c-5.203,4.557 -12.424,8.183 -21.663,10.88c-15.4,4.494 -26.611,3.816 -33.636,-2.034c-7.024,-5.849 -12.065,-13.493 -15.123,-22.931c-4.116,16.089 -10.948,28.337 -20.496,36.744c-9.548,8.408 -20.621,14.45 -33.221,18.127Zm17.216,-26.9c7.28,-2.125 13.827,-6.238 19.642,-12.341c5.815,-6.103 10.372,-14.952 13.672,-26.55l-24.39,-83.576c-2.204,7.024 -6.765,13.52 -13.682,19.489c-6.918,5.968 -13.873,12.328 -20.866,19.078c-6.993,6.75 -12.368,14.623 -16.123,23.619c-3.755,8.995 -3.753,19.933 0.005,32.812c3.677,12.599 9.314,20.981 16.909,25.145c7.596,4.164 15.873,4.938 24.833,2.324Z" style="fill:#fff;fill-rule:nonzero;"/><path d="M1863.95,3168.38l41.759,178.493c2.99,12.78 7.4,21.708 13.23,26.784c5.831,5.076 14.568,6.252 26.212,3.528l2.093,8.946c-9.004,1.208 -17.907,2.841 -26.711,4.901c-9.372,2.193 -18.218,4.711 -26.539,7.557c-8.321,2.845 -15.765,6.234 -22.333,10.167l-10.864,-46.433c-3.113,18.7 -10.142,33.15 -21.085,43.349c-10.944,10.198 -23.374,16.926 -37.29,20.181c-10.508,2.459 -19.802,3.061 -27.884,1.806c-8.082,-1.254 -15.101,-3.731 -21.059,-7.429c-6.44,-4.484 -11.701,-10.967 -15.782,-19.448c-4.081,-8.48 -7.716,-19.537 -10.905,-33.169l-25.115,-107.351c-2.99,-12.78 -7.33,-21.724 -13.018,-26.834c-5.689,-5.109 -14.497,-6.268 -26.425,-3.478l-2.093,-8.946c9.288,-1.274 18.191,-2.908 26.711,-4.901c9.372,-2.193 18.202,-4.782 26.489,-7.77c8.288,-2.987 15.749,-6.305 22.384,-9.954l39.865,170.399c1.927,8.236 4.255,15.629 6.986,22.179c2.731,6.55 6.691,11.315 11.881,14.294c5.19,2.979 12.471,3.373 21.843,1.18c14.768,-3.455 25.594,-12.877 32.478,-28.266c6.883,-15.39 8.099,-32.598 3.648,-51.626l-22.524,-96.276c-2.99,-12.779 -7.329,-21.724 -13.018,-26.833c-5.688,-5.11 -14.497,-6.269 -26.425,-3.479l-2.092,-8.945c9.287,-1.275 18.19,-2.908 26.71,-4.902c9.372,-2.192 18.202,-4.782 26.489,-7.769c8.288,-2.988 15.749,-6.306 22.384,-9.955Z" style="fill:#fff;fill-rule:nonzero;"/><path d="M2065.82,3129.3c8.327,-1.484 15.741,-1.028 22.242,1.368c6.5,2.396 11.732,5.981 15.694,10.756c3.962,4.774 6.531,10.464 7.709,17.068c1.485,8.327 0.239,15.881 -3.736,22.664c-3.976,6.782 -10.127,10.915 -18.454,12.4c-7.178,1.28 -13.664,0.214 -19.457,-3.197c-5.793,-3.411 -9.355,-8.849 -10.686,-16.315c-1.126,-6.317 -0.435,-11.995 2.074,-17.035c2.508,-5.039 5.686,-9.235 9.532,-12.587c-3.281,-1.785 -6.906,-2.176 -10.874,-1.172c-10.235,2.417 -18.597,8.278 -25.085,17.582c-6.489,9.304 -11.032,19.965 -13.629,31.983c-2.598,12.017 -3.052,22.764 -1.362,32.239l17.662,99.063c2.508,14.07 8.061,22.783 16.659,26.138c8.597,3.356 19.787,3.805 33.57,1.347l1.613,9.045c-6.656,0.891 -16.124,2.208 -28.404,3.953c-12.28,1.745 -25.168,3.821 -38.663,6.227c-10.337,1.843 -20.636,3.902 -30.896,6.175c-10.26,2.274 -18.093,4.041 -23.497,5.301l-1.613,-9.045c11.199,-1.997 18.783,-5.571 22.753,-10.723c3.97,-5.152 4.879,-13.757 2.729,-25.817l-24.113,-135.242c-2.303,-12.922 -6.159,-22.085 -11.567,-27.491c-5.408,-5.405 -14.141,-7.033 -26.201,-4.883l-1.613,-9.045c9.342,-0.776 18.32,-1.933 26.934,-3.469c9.763,-1.74 18.79,-3.868 27.082,-6.383c8.291,-2.516 15.847,-5.418 22.667,-8.708l8.831,49.531c1.961,-8.941 5.122,-17.8 9.482,-26.577c4.361,-8.776 10.113,-16.394 17.257,-22.852c7.144,-6.458 15.597,-10.558 25.36,-12.299Z" style="fill:#fff;fill-rule:nonzero;"/><path d="M2221.16,3343.16c-19.092,2.46 -33.529,-0.605 -43.312,-9.195c-9.782,-8.591 -15.643,-20.408 -17.582,-35.45c-1.603,-12.439 -0.015,-22.936 4.764,-31.492c4.778,-8.556 11.398,-15.953 19.857,-22.189c8.46,-6.237 17.591,-11.825 27.394,-16.765c9.803,-4.939 19.047,-9.66 27.73,-14.161c8.683,-4.501 15.711,-9.303 21.081,-14.407c5.371,-5.103 7.628,-10.982 6.77,-17.635l-3.803,-29.506c-1.342,-10.414 -4.077,-18.516 -8.206,-24.306c-4.128,-5.791 -9.18,-9.625 -15.157,-11.501c-5.976,-1.876 -12.869,-2.311 -20.68,-1.305c-6.653,0.858 -13.619,2.712 -20.898,5.561c-7.279,2.85 -12.733,7.303 -16.364,13.358c6.588,0.915 12.305,3.634 17.152,8.156c4.847,4.521 7.755,10.543 8.725,18.064c1.043,8.099 -0.812,14.808 -5.567,20.126c-4.755,5.319 -11.182,8.5 -19.282,9.544c-8.968,1.156 -15.984,-0.807 -21.05,-5.889c-5.067,-5.081 -8.084,-11.383 -9.054,-18.904c-1.007,-7.81 0.126,-14.426 3.397,-19.847c3.271,-5.421 7.81,-10.711 13.614,-15.871c6.346,-5.523 14.738,-10.574 25.176,-15.155c10.437,-4.58 22.309,-7.728 35.616,-9.443c12.439,-1.603 23.391,-1.618 32.858,-0.044c9.466,1.574 17.628,5.006 24.486,10.298c8.089,5.721 13.934,13.423 17.535,23.104c3.6,9.682 6.314,21.61 8.141,35.784l15.436,119.76c0.895,6.942 2.415,11.893 4.561,14.851c2.146,2.958 5.533,4.139 10.161,3.543c3.471,-0.448 6.542,-1.726 9.211,-3.834c2.669,-2.109 5.3,-4.507 7.895,-7.194l5.29,6.818c-5.441,5.7 -11.085,10.398 -16.932,14.092c-5.846,3.694 -13.542,6.157 -23.088,7.387c-15.91,2.051 -26.881,-0.358 -32.913,-7.227c-6.032,-6.868 -9.826,-15.202 -11.383,-25c-6.562,15.256 -15.211,26.296 -25.948,33.12c-10.736,6.825 -22.613,11.076 -35.631,12.754Zm21.181,-23.904c7.521,-0.97 14.627,-4.018 21.318,-9.144c6.692,-5.127 12.567,-13.162 17.626,-24.107l-11.13,-86.349c-3.267,6.597 -8.78,12.307 -16.539,17.13c-7.76,4.824 -15.618,10.027 -23.573,15.611c-7.956,5.583 -14.486,12.527 -19.592,20.831c-5.105,8.304 -6.8,19.11 -5.085,32.416c1.678,13.018 5.946,22.172 12.803,27.464c6.858,5.292 14.915,7.341 24.172,6.148Z" style="fill:#fff;fill-rule:nonzero;"/><path d="M2473.77,3079.72c9.884,-0.8 19.433,-0.33 28.645,1.412c9.212,1.741 17.338,4.521 24.378,8.34c7.33,3.796 13.059,8.599 17.188,14.41c4.128,5.811 6.486,12.35 7.075,19.618c0.706,8.722 -1.212,15.753 -5.754,21.096c-4.542,5.342 -10.737,8.331 -18.586,8.967c-7.85,0.635 -14.567,-1.015 -20.153,-4.952c-5.586,-3.937 -8.709,-9.976 -9.368,-18.116c-0.612,-7.558 1.068,-13.913 5.04,-19.062c3.972,-5.15 8.807,-8.688 14.503,-10.612c-2.969,-4.149 -7.848,-7.485 -14.636,-10.007c-6.789,-2.523 -13.962,-3.479 -21.521,-2.867c-7.849,0.636 -15.17,3.277 -21.963,7.924c-6.793,4.647 -12.61,11.409 -17.451,20.287c-4.841,8.878 -8.391,20.139 -10.651,33.783c-2.261,13.643 -2.626,29.913 -1.096,48.81c1.978,24.42 6.384,43.596 13.218,57.527c6.834,13.931 15.15,23.573 24.947,28.925c9.798,5.351 20.075,7.591 30.831,6.72c10.175,-0.824 20.69,-4.674 31.545,-11.552c10.856,-6.878 19.561,-18.629 26.115,-35.254l8.533,2.381c-2.421,9.853 -6.647,19.998 -12.679,30.435c-6.031,10.438 -14.312,19.302 -24.841,26.592c-10.529,7.291 -23.788,11.583 -39.778,12.878c-18.315,1.483 -35.25,-1.681 -50.807,-9.493c-15.556,-7.811 -28.395,-20.013 -38.517,-36.604c-10.123,-16.591 -16.196,-37.388 -18.221,-62.389c-1.977,-24.42 0.732,-46.074 8.127,-64.962c7.396,-18.887 18.543,-33.909 33.441,-45.065c14.898,-11.155 32.377,-17.545 52.436,-19.17Z" style="fill:#fff;fill-rule:nonzero;"/><path d="M2585.56,3386.66l-0.327,-6.992c16.871,-1.373 29.36,-9.037 37.467,-22.994c8.107,-13.956 11.588,-33.171 10.444,-57.644l-8.174,-174.809c-0.613,-13.111 -3.251,-22.696 -7.914,-28.756c-4.663,-6.059 -13.113,-8.803 -25.349,-8.231l-0.429,-9.178c9.364,0.439 18.416,0.453 27.156,0.045c9.615,-0.45 18.768,-1.389 27.461,-2.817c8.693,-1.429 16.633,-3.333 23.822,-5.713l8.562,183.113c1.062,22.725 -0.401,42.94 -4.391,60.646c-3.99,17.705 -11.401,32.505 -22.232,44.399c-6.93,7.916 -15.89,14.539 -26.883,19.871c-10.992,5.332 -24.063,8.352 -39.213,9.06Zm51.7,-421.124c9.032,-0.422 16.739,2.064 23.123,7.459c6.384,5.396 9.774,12.318 10.169,20.767c0.395,8.449 -2.334,15.657 -8.187,21.625c-5.852,5.967 -13.294,9.162 -22.326,9.584c-9.032,0.422 -16.74,-2.064 -23.124,-7.459c-6.384,-5.396 -9.773,-12.318 -10.168,-20.767c-0.395,-8.449 2.333,-15.657 8.186,-21.625c5.853,-5.967 13.295,-9.162 22.327,-9.584Z" style="fill:#fff;fill-rule:nonzero;"/><path d="M2784.11,3300.34c-19.25,0.068 -33.194,-4.768 -41.833,-14.509c-8.638,-9.74 -12.984,-22.194 -13.038,-37.36c-0.044,-12.542 2.837,-22.761 8.643,-30.656c5.805,-7.895 13.293,-14.411 22.462,-19.548c9.17,-5.136 18.925,-9.546 29.266,-13.228c10.342,-3.682 20.1,-7.217 29.276,-10.603c9.175,-3.387 16.745,-7.278 22.709,-11.674c5.963,-4.396 8.933,-9.948 8.91,-16.656l-0.105,-29.75c-0.037,-10.5 -1.744,-18.88 -5.12,-25.139c-3.376,-6.259 -7.912,-10.691 -13.609,-13.296c-5.697,-2.605 -12.483,-3.893 -20.358,-3.865c-6.708,0.023 -13.85,0.996 -21.427,2.919c-7.577,1.922 -13.543,5.662 -17.898,11.219c6.423,1.728 11.758,5.136 16.005,10.225c4.247,5.089 6.384,11.426 6.41,19.009c0.029,8.166 -2.646,14.593 -8.025,19.278c-5.38,4.686 -12.153,7.043 -20.319,7.072c-9.042,0.032 -15.76,-2.788 -20.155,-8.461c-4.395,-5.672 -6.606,-12.299 -6.633,-19.883c-0.028,-7.874 1.919,-14.298 5.839,-19.27c3.92,-4.972 9.08,-9.657 15.481,-14.055c6.984,-4.691 15.939,-8.66 26.865,-11.907c10.926,-3.247 23.097,-4.894 36.514,-4.941c12.542,-0.044 23.411,1.303 32.608,4.041c9.197,2.739 16.869,7.16 23.016,13.263c7.315,6.683 12.157,15.051 14.526,25.105c2.368,10.055 3.578,22.228 3.628,36.519l0.425,120.749c0.025,7 0.918,12.101 2.679,15.304c1.762,3.202 4.976,4.795 9.642,4.778c3.5,-0.012 6.705,-0.898 9.616,-2.659c2.91,-1.76 5.82,-3.812 8.728,-6.155l4.402,7.422c-6.108,4.979 -12.292,8.939 -18.553,11.877c-6.26,2.939 -14.203,4.425 -23.828,4.459c-16.041,0.057 -26.627,-3.698 -31.758,-11.263c-5.131,-7.565 -7.86,-16.306 -8.186,-26.221c-8.408,14.321 -18.363,24.2 -29.865,29.636c-11.502,5.437 -23.815,8.178 -36.94,8.224Zm23.988,-21.084c7.584,-0.027 15.014,-2.168 22.29,-6.423c7.277,-4.254 14.106,-11.497 20.486,-21.728l-0.306,-87.062c-4.062,6.139 -10.242,11.119 -18.541,14.94c-8.299,3.821 -16.743,8.007 -25.331,12.558c-8.588,4.551 -15.932,10.629 -22.03,18.234c-6.098,7.605 -9.124,18.116 -9.076,31.532c0.046,13.125 3.142,22.739 9.289,28.843c6.146,6.103 13.886,9.139 23.219,9.106Z" style="fill:#fff;fill-rule:nonzero;"/><path d="M3200.82,3001.07c11.045,0.931 20.035,2.787 26.972,5.568c6.936,2.78 12.728,6.123 17.374,10.027c5.736,4.875 10.115,10.22 13.136,16.036c3.022,5.817 4.288,11.631 3.797,17.444c-0.662,7.847 -4.016,13.784 -10.064,17.81c-6.047,4.027 -12.558,5.746 -19.534,5.158c-6.975,-0.589 -12.834,-3.132 -17.577,-7.63c-4.743,-4.498 -6.795,-10.525 -6.158,-18.081c0.564,-6.685 3.386,-12.374 8.465,-17.068c5.079,-4.694 11.143,-7.182 18.192,-7.466c-1.184,-3.319 -4.511,-6.381 -9.982,-9.184c-5.471,-2.803 -12.276,-4.548 -20.414,-5.235c-15.113,-1.275 -27.917,2.182 -38.414,10.37c-10.496,8.189 -16.492,21.147 -17.987,38.876c-0.638,7.556 0.081,15.52 2.155,23.891c2.075,8.37 6.837,16.968 14.289,25.792c5.014,-0.455 9.943,-0.771 14.788,-0.948c4.844,-0.176 8.72,-0.142 11.626,0.103c11.335,0.956 16.696,5.067 16.083,12.333c-0.221,2.616 -1.555,4.552 -4.003,5.809c-2.447,1.257 -5.415,1.739 -8.903,1.445c-5.522,-0.466 -11.085,-2.18 -16.689,-5.14c-5.604,-2.961 -9.931,-5.448 -12.981,-7.462c-16.451,4.174 -30.017,11.444 -40.697,21.813c-10.68,10.368 -16.841,25.288 -18.484,44.76c-1.667,19.763 2.16,36.844 11.483,51.241c9.323,14.397 22.7,25.843 40.13,34.339c17.431,8.495 37.772,13.723 61.023,15.685c15.113,1.275 29.792,0.757 44.036,-1.554c14.245,-2.31 27.105,-6.421 38.58,-12.331c11.475,-5.911 20.814,-13.392 28.017,-22.443c7.203,-9.052 11.332,-19.826 12.386,-32.324c0.441,-5.231 -0.012,-12.001 -1.36,-20.311c-1.348,-8.309 -4.961,-16.663 -10.838,-25.062c-5.877,-8.399 -15.449,-15.5 -28.717,-21.302l4.727,-3.992c18.958,7.746 32.208,18.962 39.75,33.648c7.542,14.686 10.578,30.748 9.106,48.186c-1.544,18.31 -8.592,35.058 -21.142,50.245c-12.55,15.186 -29.553,26.777 -51.01,34.772c-21.456,7.996 -46.716,10.767 -75.78,8.315c-27.319,-2.304 -51.801,-8.76 -73.444,-19.367c-21.643,-10.607 -38.318,-24.6 -50.023,-41.979c-11.706,-17.379 -16.614,-37.258 -14.726,-59.636c1.348,-15.985 5.619,-29.309 12.811,-39.971c7.193,-10.662 15.752,-19.307 25.678,-25.933c9.925,-6.627 19.703,-11.51 29.335,-14.649c9.631,-3.139 17.414,-5.19 23.35,-6.152c-13.727,-7.305 -24.248,-16.169 -31.564,-26.592c-7.317,-10.422 -10.484,-21.446 -9.504,-33.072c0.662,-7.847 3.164,-14.953 7.507,-21.319c4.342,-6.366 10.142,-11.804 17.401,-16.314c7.259,-4.51 15.728,-7.747 25.407,-9.711c9.678,-1.964 20.475,-2.444 32.391,-1.438Zm163.236,6.307c18.891,1.593 34.144,8.149 45.758,19.666c11.615,11.517 16.625,26.721 15.032,45.612c-1.472,17.439 -7.959,31.014 -19.462,40.727c-11.503,9.714 -25.928,16.766 -43.275,21.156c-6.033,2.125 -13.829,4.322 -23.387,6.589c-9.557,2.267 -19.703,4.557 -30.435,6.872c-10.733,2.314 -20.944,4.526 -30.635,6.635c-9.691,2.11 -17.686,4.07 -23.986,5.88c-14.899,3.134 -27.105,7.299 -36.617,12.497c-9.513,5.198 -14.686,12.738 -15.519,22.619c-0.638,7.557 1.075,14.141 5.139,19.752c4.063,5.612 9.254,10.001 15.573,13.169c6.319,3.167 12.53,5.008 18.633,5.523c3.778,0.319 8.411,0.051 13.898,-0.803c5.487,-0.855 8.777,-2.553 9.869,-5.095c-5.424,-1.628 -10.077,-4.582 -13.96,-8.861c-3.884,-4.279 -5.519,-10.052 -4.906,-17.317c0.638,-7.557 3.829,-13.288 9.573,-17.194c5.745,-3.906 12.541,-5.528 20.388,-4.866c8.137,0.687 14.408,3.557 18.811,8.612c4.403,5.055 6.286,11.36 5.649,18.917c-0.711,8.428 -4.073,15.316 -10.086,20.663c-6.012,5.346 -13.349,9.045 -22.01,11.095c-8.662,2.05 -17.497,2.695 -26.507,1.935c-9.3,-0.785 -18.229,-3.368 -26.787,-7.748c-8.558,-4.381 -15.346,-10.662 -20.363,-18.841c-5.018,-8.18 -6.999,-18.519 -5.945,-31.016c1.471,-17.438 8.921,-31.152 22.35,-41.142c13.429,-9.99 32.039,-17.201 55.829,-21.633c8.068,-1.954 17.673,-3.924 28.817,-5.911c11.144,-1.987 22.525,-4.174 34.141,-6.56c11.617,-2.386 22.393,-5.209 32.327,-8.468c17.105,-4.997 29.573,-10.531 37.403,-16.603c7.83,-6.071 12.1,-13.321 12.811,-21.75c1.054,-12.497 -3.095,-23.165 -12.447,-32.003c-9.353,-8.838 -20.714,-13.821 -34.083,-14.949c-3.197,-0.27 -5.904,-0.279 -8.12,-0.027c-2.217,0.252 -3.823,1.068 -4.817,2.448c4.769,2.451 8.278,5.967 10.526,10.547c2.248,4.58 3.2,8.905 2.857,12.974c-0.613,7.265 -3.859,12.773 -9.736,16.521c-5.878,3.748 -12.595,5.304 -20.151,4.666c-6.976,-0.588 -13.053,-3.15 -18.231,-7.685c-5.179,-4.534 -7.437,-10.725 -6.775,-18.572c0.637,-7.557 3.628,-13.524 8.974,-17.903c5.345,-4.379 11.961,-7.333 19.846,-8.863c7.886,-1.53 15.898,-1.952 24.036,-1.265Z" style="fill:#fff;fill-rule:nonzero;"/><path d="M3588.87,3042.68c6.549,1.481 15.036,3.313 25.459,5.496c10.424,2.182 20.802,4.208 31.134,6.078c13.777,2.492 26.933,4.725 39.47,6.697c12.537,1.972 21.388,3.425 26.554,4.36c36.45,6.595 62.287,19.422 77.512,38.479c15.226,19.057 20.579,41.07 16.061,66.04c-1.87,10.332 -5.624,20.842 -11.263,31.529c-5.639,10.688 -13.776,20.034 -24.413,28.039c-10.637,8.005 -24.107,13.644 -40.409,16.919c-16.301,3.275 -36.22,2.783 -59.754,-1.475l-42.19,-7.634l1.558,-8.611l37.885,6.855c19.229,3.48 34.639,2.267 46.23,-3.639c11.591,-5.905 20.323,-14.848 26.195,-26.827c5.873,-11.979 10.134,-25.287 12.782,-39.924c4.934,-27.266 3.742,-48.526 -3.576,-63.781c-7.317,-15.255 -23.03,-25.064 -47.139,-29.426c-12.341,-2.233 -20.89,-1.261 -25.648,2.917c-4.757,4.178 -8.486,13.729 -11.187,28.654l-38.481,212.671c-1.922,10.62 -2.215,18.792 -0.879,24.517c1.335,5.725 5.004,10.02 11.006,12.884c6.003,2.865 15.149,5.557 27.438,8.077l-1.636,9.041c-7.645,-1.976 -17.625,-4.153 -29.941,-6.529c-12.315,-2.377 -25.074,-4.76 -38.276,-7.149c-11.48,-2.077 -22.471,-3.991 -32.973,-5.743c-10.501,-1.752 -19.392,-2.991 -26.671,-3.715l1.558,-8.61c9.862,1.192 17.389,1.368 22.579,0.529c5.191,-0.84 9.043,-3.699 11.556,-8.58c2.514,-4.88 4.705,-12.487 6.575,-22.819l38.637,-213.533c1.921,-10.619 2.547,-18.582 1.878,-23.891c-0.67,-5.308 -3.348,-9.349 -8.033,-12.124c-4.685,-2.774 -11.737,-5.161 -21.156,-7.162l1.558,-8.61Z" style="fill:#fff;fill-rule:nonzero;"/><path d="M3914.28,3079.61c8.816,2.01 15.577,6.468 20.284,13.375c4.708,6.907 6.121,14.484 4.241,22.731c-1.88,8.246 -6.439,14.461 -13.675,18.645c-7.236,4.183 -15.262,5.27 -24.077,3.26c-8.815,-2.01 -15.577,-6.468 -20.284,-13.375c-4.708,-6.907 -6.121,-14.484 -4.241,-22.73c1.881,-8.247 6.439,-14.462 13.675,-18.646c7.236,-4.183 15.262,-5.27 24.077,-3.26Zm2.154,108.635l-42.211,185.123c-2.723,11.944 -2.225,20.583 1.494,25.919c3.72,5.335 11.125,9.267 22.215,11.796l-2.042,8.957c-4.77,-1.386 -12.153,-3.444 -22.151,-6.172c-9.998,-2.729 -20.258,-5.292 -30.779,-7.691c-9.953,-2.27 -20.239,-4.391 -30.858,-6.363c-10.619,-1.973 -18.52,-3.4 -23.704,-4.283l2.043,-8.958c11.09,2.529 19.468,2.196 25.132,-1c5.665,-3.196 9.859,-10.765 12.582,-22.709l30.54,-133.937c2.918,-12.797 2.941,-22.738 0.069,-29.825c-2.871,-7.086 -10.278,-11.991 -22.222,-14.714l2.043,-8.958c8.905,2.928 17.623,5.365 26.154,7.31c9.668,2.204 18.811,3.765 27.426,4.683c8.616,0.917 16.706,1.191 24.269,0.822Z" style="fill:#fff;fill-rule:nonzero;"/><path d="M4150.22,3251.36l-174.222,182.303l38.017,10.251c11.265,3.038 21.869,3.48 31.814,1.329c9.945,-2.152 19.138,-7.678 27.58,-16.579c8.442,-8.901 15.542,-21.788 21.301,-38.663l9.715,2.62c-5.088,18.868 -9.199,34.676 -12.335,47.424c-3.135,12.749 -5.523,23.282 -7.162,31.6c-12.52,-3.98 -25.501,-7.933 -38.942,-11.86c-13.442,-3.927 -26.78,-7.674 -40.016,-11.243c-14.362,-3.873 -28.992,-7.592 -43.89,-11.156c-14.898,-3.564 -29.182,-6.887 -42.851,-9.969l174.222,-182.303l-38.862,-10.479c-12.109,-3.265 -23.155,-3.752 -33.138,-1.459c-9.983,2.292 -18.824,7.914 -26.524,16.863c-7.7,8.95 -14.57,21.824 -20.61,38.623l-9.293,-2.506c5.163,-19.15 9.275,-34.958 12.335,-47.424c3.059,-12.467 5.447,-23 7.161,-31.6c12.239,3.904 25.079,7.82 38.521,11.746c13.441,3.927 26.92,7.712 40.437,11.357c14.081,3.797 28.57,7.478 43.468,11.042c14.899,3.564 29.323,6.925 43.274,10.083Z" style="fill:#fff;fill-rule:nonzero;"/><path d="M4359.2,3317.81l-182.995,173.494l37.466,12.113c11.101,3.589 21.67,4.554 31.709,2.895c10.039,-1.659 19.494,-6.725 28.364,-15.199c8.87,-8.474 16.597,-20.996 23.18,-37.566l9.575,3.096c-6.012,18.594 -10.898,34.18 -14.658,46.758c-3.76,12.579 -6.663,22.981 -8.71,31.209c-12.309,-4.593 -25.08,-9.181 -38.311,-13.765c-13.231,-4.585 -26.369,-8.985 -39.412,-13.202c-14.154,-4.576 -28.583,-9.011 -43.288,-13.306c-14.704,-4.294 -28.807,-8.317 -42.307,-12.069l182.995,-173.494l-38.298,-12.382c-11.934,-3.858 -22.942,-4.888 -33.026,-3.09c-10.084,1.797 -19.191,6.976 -27.323,15.535c-8.131,8.56 -15.628,21.08 -22.488,37.56l-9.159,-2.961c6.102,-18.872 10.987,-34.458 14.658,-46.758c3.67,-12.301 6.574,-22.704 8.71,-31.209c12.032,4.503 24.663,9.046 37.895,13.631c13.231,4.584 26.507,9.029 39.828,13.336c13.877,4.486 28.167,8.877 42.871,13.171c14.705,4.294 28.946,8.362 42.724,12.203Z" style="fill:#fff;fill-rule:nonzero;"/><path d="M4498.68,3365.45c23.978,9.154 40.023,23.552 48.134,43.195c8.111,19.643 6.185,45.133 -5.777,76.468l-141.012,-53.832l2.148,-8.078l98.503,37.605c5.37,-13.248 8.987,-25.994 10.852,-38.238c1.864,-12.245 1.508,-22.761 -1.068,-31.55c-2.577,-8.788 -8.089,-14.795 -16.536,-18.02c-11.717,-4.473 -24.233,-2.149 -37.55,6.973c-13.316,9.121 -26.129,26.942 -38.439,53.462l0.446,2.512c-1.729,3.711 -3.588,7.762 -5.577,12.154c-1.989,4.392 -3.815,8.768 -5.48,13.128c-7.177,18.801 -10.35,35.698 -9.517,50.689c0.834,14.991 4.66,27.457 11.48,37.397c6.82,9.941 14.998,16.731 24.535,20.372c10.9,4.161 22.499,5.467 34.798,3.918c12.298,-1.549 24.935,-8.276 37.909,-20.181l6.927,6.39c-6.807,8.016 -15.333,15.22 -25.578,21.612c-10.245,6.391 -21.747,10.351 -34.506,11.88c-12.76,1.529 -26.224,-0.411 -40.393,-5.82c-19.074,-7.282 -34.058,-17.919 -44.95,-31.911c-10.893,-13.993 -17.085,-30.484 -18.577,-49.473c-1.492,-18.99 1.975,-39.52 10.4,-61.591c9.259,-24.251 21.115,-43.452 35.571,-57.602c14.456,-14.15 30.579,-23.058 48.369,-26.725c17.79,-3.667 36.086,-1.912 54.888,5.266Z" style="fill:#fff;fill-rule:nonzero;"/><path d="M4742.32,3467.48c7.734,3.425 13.626,7.948 17.676,13.569c4.05,5.621 6.383,11.519 6.998,17.693c0.615,6.173 -0.435,12.327 -3.151,18.461c-3.425,7.734 -8.682,13.301 -15.77,16.701c-7.088,3.401 -14.499,3.389 -22.233,-0.036c-6.667,-2.953 -11.448,-7.463 -14.344,-13.53c-2.895,-6.067 -2.808,-12.567 0.263,-19.501c2.598,-5.867 6.346,-10.188 11.243,-12.964c4.898,-2.775 9.878,-4.478 14.941,-5.106c-1.722,-3.315 -4.509,-5.665 -8.361,-7.052c-9.837,-3.718 -20.046,-3.534 -30.628,0.552c-10.581,4.086 -20.308,10.385 -29.181,18.896c-8.873,8.511 -15.258,17.167 -19.155,25.968l-40.744,92.007c-5.787,13.068 -6.055,23.396 -0.803,30.985c5.252,7.589 14.279,14.218 27.08,19.887l-3.72,8.401c-6.016,-2.983 -14.602,-7.185 -25.759,-12.604c-11.158,-5.419 -23.003,-10.904 -35.538,-16.454c-9.6,-4.252 -19.29,-8.304 -29.067,-12.155c-9.778,-3.852 -17.26,-6.766 -22.445,-8.743l3.72,-8.401c10.401,4.606 18.687,5.883 24.859,3.831c6.172,-2.051 11.738,-8.677 16.698,-19.878l55.624,-125.61c5.315,-12.001 7.241,-21.754 5.78,-29.259c-1.461,-7.506 -7.792,-13.738 -18.993,-18.699l3.72,-8.4c8.18,4.579 16.27,8.64 24.271,12.183c9.067,4.015 17.741,7.298 26.022,9.849c8.28,2.55 16.167,4.368 23.661,5.454l-20.372,46.004c6.625,-6.317 14.199,-11.895 22.722,-16.733c8.522,-4.839 17.55,-7.938 27.084,-9.299c9.534,-1.36 18.835,-0.032 27.902,3.983Z" style="fill:#fff;fill-rule:nonzero;"/><path d="M4895.96,3425.49c8.109,3.999 13.653,9.903 16.631,17.713c2.977,7.81 2.596,15.508 -1.145,23.094c-3.741,7.586 -9.616,12.575 -17.625,14.967c-8.008,2.392 -16.068,1.589 -24.177,-2.41c-8.109,-3.999 -13.653,-9.903 -16.631,-17.713c-2.978,-7.81 -2.596,-15.508 1.145,-23.094c3.741,-7.586 9.616,-12.576 17.625,-14.968c8.008,-2.392 16.067,-1.588 24.177,2.411Zm-23.09,106.174l-83.977,170.295c-5.418,10.987 -6.937,19.506 -4.555,25.558c2.381,6.053 8.673,11.594 18.875,16.625l-4.064,8.24c-4.318,-2.454 -11.023,-6.167 -20.116,-11.139c-9.093,-4.972 -18.479,-9.844 -28.158,-14.617c-9.155,-4.515 -18.669,-8.963 -28.542,-13.343c-9.872,-4.381 -17.227,-7.601 -22.065,-9.662l4.064,-8.24c10.202,5.031 18.428,6.649 24.68,4.853c6.251,-1.795 12.085,-8.186 17.503,-19.173l60.758,-123.208c5.805,-11.772 8.132,-21.437 6.982,-28.996c-1.151,-7.56 -7.219,-14.048 -18.206,-19.466l4.064,-8.24c7.983,4.913 15.899,9.304 23.747,13.174c8.894,4.386 17.425,8.024 25.593,10.914c8.169,2.889 15.974,5.031 23.417,6.425Z" style="fill:#fff;fill-rule:nonzero;"/><path d="M4868.12,3792.09c-16.844,-9.319 -26.665,-20.335 -29.464,-33.05c-2.799,-12.715 -0.528,-25.708 6.814,-38.979c6.072,-10.975 13.565,-18.495 22.482,-22.562c8.916,-4.067 18.63,-6.11 29.14,-6.129c10.51,-0.018 21.177,0.883 32.002,2.706c10.825,1.822 21.069,3.489 30.732,5.002c9.663,1.512 18.17,1.802 25.519,0.868c7.35,-0.934 12.649,-4.336 15.896,-10.206l14.402,-26.032c5.083,-9.187 7.674,-17.337 7.775,-24.447c0.101,-7.111 -1.702,-13.192 -5.408,-18.242c-3.706,-5.05 -9.004,-9.481 -15.895,-13.293c-5.87,-3.248 -12.581,-5.878 -20.135,-7.89c-7.553,-2.012 -14.585,-1.652 -21.096,1.079c4.767,4.638 7.766,10.213 8.996,16.727c1.23,6.513 0.009,13.088 -3.662,19.723c-3.953,7.146 -9.42,11.455 -16.401,12.926c-6.98,1.472 -14.044,0.231 -21.19,-3.723c-7.911,-4.377 -12.405,-10.112 -13.48,-17.207c-1.074,-7.094 0.224,-13.96 3.894,-20.595c3.813,-6.891 8.642,-11.553 14.487,-13.985c5.846,-2.433 12.635,-4.01 20.368,-4.732c8.384,-0.695 18.138,0.201 29.261,2.689c11.124,2.487 22.556,6.978 34.296,13.473c10.974,6.071 19.81,12.543 26.508,19.415c6.698,6.872 11.244,14.47 13.638,22.795c3.133,9.4 3.285,19.067 0.456,29.001c-2.83,9.935 -7.704,21.155 -14.622,33.66l-58.453,105.659c-3.389,6.125 -5.094,11.015 -5.116,14.669c-0.022,3.655 2.009,6.612 6.093,8.871c3.062,1.694 6.293,2.481 9.692,2.362c3.4,-0.119 6.94,-0.494 10.622,-1.124l0.228,8.626c-7.76,1.374 -15.09,1.819 -21.989,1.335c-6.899,-0.483 -14.559,-3.055 -22.981,-7.714c-14.037,-7.765 -21.453,-16.201 -22.248,-25.308c-0.796,-9.106 1.079,-18.069 5.625,-26.887c-14.32,8.411 -27.826,12.188 -40.519,11.333c-12.693,-0.856 -24.782,-4.46 -36.267,-10.814Zm31.221,-6.727c6.636,3.671 14.167,5.421 22.595,5.25c8.428,-0.171 17.92,-3.169 28.476,-8.996l42.146,-76.181c-6.538,3.383 -14.362,4.721 -23.471,4.015c-9.109,-0.706 -18.522,-1.164 -28.239,-1.373c-9.718,-0.21 -19.092,1.521 -28.122,5.191c-9.03,3.671 -16.793,11.376 -23.288,23.116c-6.354,11.485 -8.333,21.389 -5.939,29.714c2.395,8.324 7.675,14.746 15.842,19.264Z" style="fill:#fff;fill-rule:nonzero;"/></g><g><path d="M419.629,2232.36c19.26,-6.915 44.073,-16.102 74.44,-27.56c30.367,-11.458 60.36,-23.244 89.979,-35.356c39.492,-16.15 76.964,-31.955 112.418,-47.413c35.453,-15.459 60.584,-26.217 75.394,-32.273c92.148,-37.683 168.455,-47.761 228.922,-30.234c60.467,17.528 102.308,54.677 125.524,111.446c11.776,28.797 16.68,60.163 14.713,94.099c-1.968,33.937 -13.546,68.442 -34.735,103.517c-21.189,35.075 -54.186,69.456 -98.991,103.144l1.01,2.468c72.139,-20.857 132.497,-28.254 181.073,-22.19c48.577,6.064 87.401,21.158 116.473,45.282c29.072,24.124 50.506,53.053 64.301,86.785c29.608,72.402 25.972,141.594 -10.908,207.574c-36.881,65.98 -104.275,118.99 -202.182,159.028c-18.101,7.402 -45.71,17.973 -82.827,31.711c-37.117,13.738 -81.592,31.206 -133.425,52.403c-31.265,12.785 -61.828,25.524 -91.69,38.216c-29.862,12.692 -53.919,23.73 -72.169,33.115l-10.094,-24.683c27.301,-13.085 46.935,-24.956 58.903,-35.612c11.968,-10.656 17.186,-24.315 15.655,-40.975c-1.531,-16.66 -8.353,-39.799 -20.465,-69.418l-250.326,-612.127c-12.449,-30.441 -23.88,-51.936 -34.293,-64.484c-10.413,-12.547 -23.912,-18.551 -40.498,-18.011c-16.585,0.54 -38.621,5.95 -66.108,16.231l-10.094,-24.683Zm335.903,-108.555c-35.378,14.468 -55.761,30.966 -61.148,49.495c-5.388,18.529 0.667,49.185 18.163,91.968l250.325,612.127c17.496,42.783 34.611,68.195 51.345,76.237c16.733,8.043 43.612,4.493 80.636,-10.647c74.047,-30.282 120.077,-70.953 138.09,-122.015c18.012,-51.062 12.887,-111.148 -15.375,-180.259c-25.908,-63.352 -62.588,-105.492 -110.04,-126.421c-47.453,-20.929 -109.437,-15.748 -185.953,15.542l-119.71,48.955l-8.58,-20.98l106.135,-43.403c45.251,-18.505 76.433,-42.061 93.545,-70.666c17.112,-28.606 23.885,-60.186 20.318,-94.74c-3.567,-34.554 -12.585,-69.521 -27.052,-104.899c-24.898,-60.884 -55.586,-101.873 -92.063,-122.969c-36.477,-21.096 -82.689,-20.204 -138.636,2.675Z" style="fill:#fff;fill-rule:nonzero;"/><path d="M1814.17,1778.05l477.148,761.117c18.414,29.958 36.783,49.063 55.109,57.317c18.326,8.253 34.556,11.477 48.692,9.673l5.02,26.19c-21.287,2.27 -46.158,5.906 -74.614,10.908c-28.456,5.002 -57.089,10.264 -85.897,15.786c-36.666,7.028 -70.671,13.772 -102.015,20.233c-31.345,6.461 -56.452,12.405 -75.324,17.832l-5.02,-26.19c44.188,-10.28 70.878,-23.315 80.07,-39.106c9.192,-15.79 0.791,-44.273 -25.204,-85.45l-357.697,-591.232l16.434,-27.587l-108.44,609.987c-10.912,56.396 -13.17,98.914 -6.775,127.556c6.395,28.641 20.544,46.972 42.445,54.993c21.902,8.02 51.269,8.953 88.102,2.797l5.02,26.19c-26.524,3.274 -53.142,7.245 -79.852,11.912c-26.71,4.668 -51.85,9.26 -75.421,13.779c-20.952,4.016 -39.461,7.79 -55.528,11.322c-16.067,3.532 -30.48,7.426 -43.241,11.682l-5.02,-26.189c17.496,-7.88 33.738,-22.306 48.724,-43.28c14.986,-20.974 26.757,-54.003 35.311,-99.086l153.45,-842.62l44.523,-8.534Zm243.923,528.87l5.021,26.19l-390.23,74.799l8.075,-28.7l377.134,-72.289Z" style="fill:#fff;fill-rule:nonzero;"/><path d="M2483.63,1683.42c20.44,0.993 46.879,2.016 79.319,3.069c32.439,1.054 64.659,1.662 96.658,1.824c42.667,0.216 83.335,-0.022 122.006,-0.715c38.67,-0.692 66.006,-0.998 82.005,-0.917c112.888,0.572 197.222,22.556 253.002,65.95c55.781,43.395 83.498,99.314 83.151,167.758c-0.14,27.555 -5.843,56.637 -17.11,87.247c-11.266,30.61 -30.744,58.956 -58.432,85.038c-27.688,26.083 -65.13,47.449 -112.326,64.098c-47.196,16.65 -107.238,24.79 -180.126,24.42l-127.999,-0.649l0.135,-26.666l114.666,0.581c59.554,0.302 105.16,-9.466 136.817,-29.306c31.656,-19.84 53.125,-46.398 64.405,-79.674c11.28,-33.277 17.023,-70.359 17.231,-111.248c0.356,-70.221 -14.479,-124.742 -44.505,-163.561c-30.025,-38.819 -82.371,-58.418 -157.037,-58.797c-38.222,-0.194 -63.371,7.234 -75.447,22.284c-12.077,15.05 -18.232,45.686 -18.466,91.908l-3.354,661.325c-0.163,31.999 2.382,56.012 7.634,72.039c5.252,16.027 15.42,26.745 30.504,32.155c15.084,5.41 37.288,9.078 66.612,11.005l-0.135,26.666c-21.324,-1.886 -48.207,-3.133 -80.649,-3.742c-32.442,-0.609 -65.551,-0.999 -99.329,-1.171c-37.333,-0.189 -72.222,-0.144 -104.668,0.136c-32.447,0.28 -58.896,1.257 -79.35,2.931l0.136,-26.666c30.23,-1.625 52.915,-5.065 68.053,-10.322c15.138,-5.256 25.192,-15.872 30.162,-31.847c4.97,-15.975 7.536,-39.963 7.698,-71.962l3.354,-661.325c0.167,-32.888 -2.155,-57.123 -6.965,-72.703c-4.809,-15.58 -14.977,-26.298 -30.504,-32.155c-15.526,-5.857 -37.953,-9.304 -67.281,-10.341l0.135,-26.667Zm222.93,474.47c45.324,2.008 81.757,4.193 109.301,6.555c27.544,2.362 50.645,4.479 69.302,6.351c18.658,1.873 35.98,4.183 51.966,6.931c66.621,9.227 115.196,27.251 145.728,54.073c30.531,26.822 51.434,67.817 62.71,122.986l32.643,136.167c7.806,38.263 16.335,65.417 25.587,81.464c9.252,16.048 23.212,24.119 41.878,24.213c14.227,-0.817 26.026,-4.979 35.397,-12.487c9.372,-7.508 19.425,-17.902 30.159,-31.181l18.592,14.761c-20.584,27.452 -42.022,48.01 -64.314,61.675c-22.292,13.665 -52.104,20.403 -89.437,20.213c-38.222,-0.194 -70.837,-10.359 -97.847,-30.496c-27.009,-20.138 -46.149,-58.235 -57.421,-114.293l-25.99,-133.467c-7.806,-38.262 -16.527,-71.418 -26.162,-99.467c-9.636,-28.05 -23.08,-50.118 -40.332,-66.206c-17.252,-16.087 -42.322,-24.215 -75.21,-24.381l-143.998,-0.731l-2.552,-22.68Z" style="fill:#fff;fill-rule:nonzero;"/><path d="M4262.62,1839.4l-4.587,26.269c-18.277,1.32 -38.111,10.264 -59.502,26.832c-21.391,16.567 -46.701,43.956 -75.931,82.164l-348.423,468.384l-35.464,-6.192l-208.276,-621.081c-12.008,-34.581 -23.159,-57.281 -33.451,-68.102c-10.292,-10.82 -20.254,-17.071 -29.886,-18.753l4.816,-27.583c19.111,4.239 39.098,8.631 59.96,13.176c20.863,4.546 43.553,8.959 68.071,13.24c31.523,5.504 65.711,11.248 102.565,17.231c36.853,5.984 71.194,10.852 103.023,14.605l-4.816,27.583c-21.891,-3.823 -41.756,-5.035 -59.596,-3.639c-17.839,1.397 -30.713,7.947 -38.622,19.65c-7.909,11.703 -7.797,30.446 0.333,56.229l144.021,454.208l-24.914,18.659l217.744,-293.589c36.471,-48.675 57.487,-87.641 63.046,-116.898c5.56,-29.258 -0.479,-51.517 -18.117,-66.778c-17.638,-15.262 -44.769,-26.541 -81.393,-33.838l4.587,-26.269c26.992,5.615 53.546,11.154 79.663,16.617c26.116,5.462 50.995,10.257 74.638,14.385c21.891,3.823 40.793,6.672 56.708,8.548c15.914,1.877 30.515,3.524 43.803,4.942Zm-390.621,454.248l-49.537,283.708c-5.504,31.523 -7.005,55.624 -4.504,72.303c2.502,16.679 10.737,28.945 24.706,36.798c13.968,7.853 35.248,15.177 63.838,21.974l-4.586,26.269c-20.71,-5.42 -47.226,-11.178 -79.548,-17.273c-32.323,-6.095 -65.121,-12.047 -98.395,-17.857c-35.902,-6.269 -70.09,-12.012 -102.565,-17.232c-32.475,-5.219 -58.498,-8.635 -78.068,-10.247l4.587,-26.269c30.078,3.447 53.018,3.843 68.821,1.188c15.804,-2.654 27.489,-11.442 35.057,-26.363c7.569,-14.92 14.105,-38.142 19.609,-69.665l47.014,-269.26l71.156,96.342l82.415,-84.416Z" style="fill:#fff;fill-rule:nonzero;"/><path d="M5199.99,2170.57c-16.491,33.681 -31.552,66.715 -45.18,99.101c-13.629,32.385 -23.734,57.312 -30.316,74.78c-7.209,19.131 -13.689,37.587 -19.44,55.368c-5.75,17.781 -10.56,33.067 -14.43,45.857l-28.697,-10.814c15.19,-65.518 22.662,-118.747 22.415,-159.686c-0.246,-40.939 -10.285,-74.169 -30.115,-99.689c-19.83,-25.521 -53.867,-47.371 -102.111,-65.551l-53.651,-20.216l-267.991,711.182c-12.538,33.272 -18.821,59.401 -18.852,78.388c-0.03,18.986 8.294,34.709 24.972,47.168c16.678,12.459 42.587,26.26 77.727,41.401l-9.403,24.954c-22.664,-10.44 -52.216,-22.764 -88.659,-36.971c-36.442,-14.207 -73.794,-28.52 -112.056,-42.938c-39.926,-15.045 -77.643,-29.02 -113.151,-41.926c-35.508,-12.905 -64.389,-22.6 -86.642,-29.086l9.403,-24.954c36.394,11.814 64.759,18.466 85.096,19.955c20.337,1.489 36.967,-4.831 49.89,-18.959c12.923,-14.128 25.653,-37.828 38.191,-71.1l267.991,-711.183l-54.899,-20.687c-46.58,-17.552 -86.157,-23.442 -118.729,-17.668c-32.573,5.774 -62.253,24.037 -89.039,54.789c-26.787,30.752 -56.093,75.753 -87.919,135.003l-28.697,-10.813c6.365,-11.85 13.047,-26.431 20.045,-43.742c6.998,-17.311 14.102,-35.532 21.311,-54.663c6.582,-17.468 15.44,-42.864 26.573,-76.19c11.133,-33.326 21.619,-68.084 31.456,-104.273c35.453,14.31 74.234,29.873 116.342,46.691c42.108,16.817 84.789,33.375 128.042,49.674l233.318,87.919c42.421,15.986 85.415,31.712 128.982,47.179c43.567,15.467 82.974,29.367 118.223,41.7Z" style="fill:#fff;fill-rule:nonzero;"/></g></g><g id="Shape"><path d="M482.244,720.213c1610.31,-644.438 3183.06,-650.443 4717.19,0" style="fill:none;stroke:#fff;stroke-width:62.5px;stroke-linecap:round;"/><path d="M482.244,720.213l285.76,716.077" style="fill:none;stroke:#fff;stroke-width:62.5px;stroke-linecap:butt;"/><path d="M1705.47,3785.2l305.016,764.329" style="fill:none;stroke:#fff;stroke-width:62.5px;stroke-linecap:butt;"/><path d="M2010.49,4549.53l835.23,2092.97l831.855,-2092.97" style="fill:#fff;stroke:#fff;stroke-width:62.5px;stroke-linecap:round;"/><path d="M3677.58,4549.53l303.783,-764.329" style="fill:none;stroke:#fff;stroke-width:62.5px;stroke-linecap:butt;"/><path d="M4914.83,1436.29l284.606,-716.077" style="fill:none;stroke:#fff;stroke-width:62.5px;stroke-linecap:butt;"/></g><g id="Cutlers"><path d="M3141.33,535.122c-5.638,-2.821 -14.582,-0.079 -27.238,8.406c-16.306,10.806 -35.381,28.666 -68.166,63.678c-16.699,17.77 -98.861,114.773 -139.203,164.373c-34.505,42.34 -35.973,44.495 -48.654,71.28c-8.189,17.27 -9.898,19.917 -21.785,34.083c-26.425,31.492 -64.136,71.663 -97.117,103.559c-13.735,13.223 -25.803,24.458 -51.807,48.141c-42.014,38.296 -48.444,44.538 -62.939,61.812c-12.621,14.94 -17.145,21.651 -23.618,34.542c-6.623,13.373 -8.485,20.668 -7.343,29.355c2.752,20.979 26.281,36.38 46.315,30.266c7.396,-2.217 18.14,-10.048 30.921,-22.336c12.253,-11.862 26.397,-30.646 45.86,-60.946c3.84,-5.896 11.213,-17.424 16.506,-25.661c24.835,-38.731 48.325,-72.511 74.761,-107.468c16.361,-21.527 45.093,-57.596 55.648,-69.667l8.965,-10.279l6.289,-3.841c3.48,-2.116 15.125,-7.976 25.9,-13.002c26.828,-12.484 38.065,-18.772 51.997,-28.878c18.615,-13.557 30.781,-26.534 61.095,-65.097c73.896,-93.952 122.713,-174.561 130.423,-215.418c2.478,-13.204 -0.158,-23.665 -6.81,-26.902Z" style="fill:#fff;fill-rule:nonzero;"/><path d="M2542.69,582.967c2.998,10.453 29.203,49.96 64.586,97.412c21.624,28.961 31.085,40.935 52.673,66.662c19.15,22.921 23.293,27.56 28.314,32.049c7.088,6.352 13.281,10.442 21.039,13.805c7.586,3.257 11.627,4.384 28.388,7.806c15.151,3.1 21.722,4.949 27.83,7.94c10.39,5.004 17.487,11.766 28.04,26.338c3.364,4.707 18.959,27.181 34.62,49.933c57.803,83.944 74.32,107.317 103.092,146.093c25.919,34.978 31.936,42.647 59.745,75.788c30.116,35.891 37.018,43.319 54.691,59.196c15.78,14.119 24.142,18.899 34.616,19.816c3.251,0.284 7.535,0.204 9.486,-0.262c20.952,-4.445 31.106,-27.942 21.675,-50.149c-2.035,-4.819 -10.108,-18.627 -16.69,-28.666c-6.55,-9.899 -27.045,-35.122 -38.979,-47.949c-13.936,-14.913 -23.093,-24.13 -58.843,-59.058c-73.14,-71.41 -103.57,-103.189 -154.301,-160.855c-25.489,-28.981 -37.891,-44.26 -40.256,-49.471c-3.696,-8.194 -4.745,-14.928 -4.734,-31.168c-0.059,-17.521 -2.355,-31.324 -7.554,-44.699c-4.926,-12.851 -14.474,-25.924 -44.117,-60.455c-20.977,-24.4 -26.405,-30.471 -49.235,-54.487c-39.787,-41.832 -80.902,-80.96 -82.617,-78.517c-1.25,1.801 8.001,14.621 42.297,58.384c41.457,52.897 56.132,72.879 63.35,86.067c3.806,6.93 4.447,9.488 2.809,10.527c-4.185,2.591 -21.492,-14.345 -63.91,-62.504c-53.919,-61.266 -64.148,-72.261 -67.899,-72.544c-3.974,-0.347 5.344,12.751 41.797,58.887c42.594,53.952 56.865,73.352 63.813,87.017c5.369,10.388 1.974,13.321 -7.241,6.327c-10.795,-8.178 -25.505,-24.114 -68.446,-74.093c-40.923,-47.573 -51.31,-58.854 -54.074,-58.459c-3.272,0.487 6.987,15.306 42.802,61.977c31.858,41.457 42.114,55.275 51.268,68.678c10.977,15.973 15.034,24.198 12.972,25.929c-2.455,2.06 -9.588,-3.25 -24.303,-18.095c-10.367,-10.461 -26.933,-29.107 -59.93,-67.434c-36.597,-42.417 -45.698,-52.267 -47.171,-51.031c-0.246,0.206 -0.101,1.675 0.397,3.265Z" style="fill:#fff;fill-rule:nonzero;"/></g></svg>